<svg width="1989" height="1751" viewBox="0 0 1989 1751" fill="#152832" xmlns="http://www.w3.org/2000/svg">
<g clip-path="url(#clip0_40_8)">
<path d="M262.125 1329.37C266.904 1374.33 243.368 1413.5 209.547 1416.94C175.727 1420.37 144.416 1386.68 139.637 1341.72C134.857 1296.75 158.393 1257.58 192.214 1254.15C226.035 1250.71 257.346 1284.4 262.125 1329.37ZM116.311 1405.6C127.832 1441.3 115.264 1477.14 88.334 1485.57C61.4039 1493.99 30.2124 1471.9 18.7886 1436.23C7.36482 1400.55 19.7378 1364.67 46.6679 1356.24C73.5981 1347.81 104.79 1369.91 116.213 1405.58L116.311 1405.6ZM42.4393 1596.82C123.889 1470.02 222.518 1454.9 262.859 1463.74C303.201 1472.59 386.45 1527.6 407.368 1676.84C408.807 1687.09 408.142 1697.59 405.915 1707.75L405.572 1709.31C400.046 1734.51 375.154 1750.45 349.953 1744.92C338.72 1742.46 327.884 1738.65 317.642 1733.54L236.396 1693.2C222.266 1686.21 206.637 1682.78 190.878 1683.22L100.208 1685.86C88.766 1686.22 77.3307 1685.14 66.0976 1682.68C40.8964 1677.15 24.9581 1652.26 30.4844 1627.06L30.8271 1625.5C33.0547 1615.34 36.8452 1605.52 42.4393 1596.82ZM412.238 1556.59C391.305 1537.67 394.887 1499.86 420.288 1472.26C445.69 1444.66 483.167 1437.63 504.099 1456.55C525.032 1475.47 521.45 1513.28 496.049 1540.88C470.647 1568.48 433.171 1575.52 412.238 1556.59ZM323.05 1441.83C293.771 1424.55 288.784 1379.13 311.941 1340.29C335.098 1301.45 377.633 1283.95 406.913 1301.23C436.193 1318.5 441.179 1363.92 418.022 1402.76C394.865 1441.6 352.33 1459.1 323.05 1441.83Z" fill="current"/>
</g>
<path d="M1191.1 1055.94C1195.88 1100.91 1172.34 1140.08 1138.52 1143.51C1104.7 1146.95 1073.39 1113.26 1068.61 1068.29C1063.83 1023.33 1087.37 984.159 1121.19 980.724C1155.01 977.288 1186.32 1010.98 1191.1 1055.94ZM1045.29 1132.18C1056.81 1167.88 1044.24 1203.72 1017.31 1212.14C990.379 1220.57 959.188 1198.48 947.764 1162.8C936.34 1127.13 948.713 1091.25 975.643 1082.82C1002.57 1074.39 1033.76 1096.48 1045.19 1132.16L1045.29 1132.18ZM971.415 1323.4C1052.86 1196.6 1151.49 1181.47 1191.83 1190.32C1232.18 1199.17 1315.43 1254.17 1336.34 1403.42C1337.78 1413.66 1337.12 1424.17 1334.89 1434.32L1334.55 1435.89C1329.02 1461.09 1304.13 1477.03 1278.93 1471.5C1267.7 1469.04 1256.86 1465.23 1246.62 1460.12L1165.37 1419.78C1151.24 1412.79 1135.61 1409.36 1119.85 1409.8L1029.18 1412.44C1017.74 1412.79 1006.31 1411.72 995.073 1409.26C969.872 1403.73 953.933 1378.84 959.46 1353.64L959.802 1352.07C962.03 1341.92 965.821 1332.1 971.415 1323.4ZM1341.21 1283.17C1320.28 1264.25 1323.86 1226.44 1349.26 1198.84C1374.67 1171.24 1412.14 1164.2 1433.07 1183.13C1454.01 1202.05 1450.43 1239.86 1425.02 1267.46C1399.62 1295.06 1362.15 1302.09 1341.21 1283.17ZM1252.03 1168.4C1222.75 1151.13 1217.76 1105.71 1240.92 1066.87C1264.07 1028.03 1306.61 1010.53 1335.89 1027.8C1365.17 1045.08 1370.15 1090.5 1347 1129.34C1323.84 1168.18 1281.31 1185.68 1252.03 1168.4Z" fill="current"/>
<g clip-path="url(#clip1_40_8)">
<path d="M758.887 431.836C761.55 476.978 736.202 514.998 702.257 516.843C668.313 518.687 638.617 483.566 635.954 438.424C633.291 393.282 658.639 355.262 692.583 353.418C726.528 351.573 756.223 386.694 758.887 431.836ZM609.656 501.146C619.489 537.343 605.253 572.554 577.957 579.708C550.661 586.862 520.54 563.329 510.804 527.157C501.067 490.985 515.11 455.723 542.406 448.569C569.702 441.415 599.822 464.948 609.559 501.12L609.656 501.146ZM526.891 688.683C614.202 565.849 713.432 555.369 753.314 566.099C793.196 576.829 873.772 635.684 887.662 785.745C888.619 796.047 887.462 806.506 884.76 816.549L884.344 818.094C877.641 843.008 852.029 857.76 827.115 851.058C816.01 848.07 805.365 843.756 795.374 838.168L716.111 794.061C702.324 786.417 686.873 782.26 671.111 781.954L580.417 780.336C568.971 780.156 557.599 778.547 546.494 775.559C521.58 768.856 506.827 743.244 513.53 718.33L513.946 716.785C516.648 706.742 520.895 697.115 526.891 688.683ZM898.17 665.858C878.149 645.974 883.501 608.373 910.17 581.996C936.838 555.619 974.604 550.35 994.626 570.234C1014.65 590.119 1009.29 627.719 982.626 654.096C955.957 680.474 918.192 685.743 898.17 665.858ZM814.467 547.032C786.03 528.404 783.181 482.798 808.136 445.086C833.09 407.375 876.399 391.895 904.836 410.522C933.273 429.15 936.122 474.756 911.168 512.468C886.213 550.18 842.904 565.66 814.467 547.032Z" fill="current"/>
</g>
<path d="M1697.23 117.594C1699.9 162.736 1674.55 200.756 1640.61 202.601C1606.66 204.445 1576.97 169.324 1574.3 124.182C1571.64 79.04 1596.99 41.02 1630.93 39.1756C1664.88 37.3312 1694.57 72.4521 1697.23 117.594ZM1548 186.904C1557.84 223.101 1543.6 258.312 1516.3 265.466C1489.01 272.62 1458.89 249.086 1449.15 212.915C1439.41 176.743 1453.46 141.481 1480.75 134.326C1508.05 127.172 1538.17 150.706 1547.91 186.878L1548 186.904ZM1465.24 374.441C1552.55 251.606 1651.78 241.127 1691.66 251.857C1731.54 262.586 1812.12 321.441 1826.01 471.503C1826.97 481.805 1825.81 492.264 1823.11 502.307L1822.69 503.852C1815.99 528.766 1790.38 543.518 1765.46 536.815C1754.36 533.828 1743.71 529.514 1733.72 523.926L1654.46 479.819C1640.67 472.175 1625.22 468.018 1609.46 467.712L1518.77 466.094C1507.32 465.914 1495.95 464.304 1484.84 461.317C1459.93 454.614 1445.17 429.002 1451.88 404.087L1452.29 402.542C1455 392.5 1459.24 382.872 1465.24 374.441ZM1836.52 351.616C1816.5 331.732 1821.85 294.131 1848.52 267.754C1875.19 241.377 1912.95 236.108 1932.97 255.992C1952.99 275.876 1947.64 313.477 1920.97 339.854C1894.31 366.231 1856.54 371.501 1836.52 351.616ZM1752.82 232.79C1724.38 214.162 1721.53 168.556 1746.48 130.844C1771.44 93.1324 1814.75 77.6526 1843.18 96.2802C1871.62 114.908 1874.47 160.514 1849.52 198.226C1824.56 235.938 1781.25 251.417 1752.82 232.79Z" fill="current"/>
<defs>
<clipPath id="clip0_40_8">
<rect width="512" height="512" fill="white" transform="translate(0 1239)"/>
</clipPath>
<clipPath id="clip1_40_8">
<rect width="512" height="512" fill="white" transform="translate(564.3 283.281) rotate(15.0583)"/>
</clipPath>
</defs>
</svg>
